HIERARCHY
ROOT Hips
{
	OFFSET 0.0000 0.0000 0.0000
	CHANNELS 6 Xposition Yposition Zposition Zrotation Xrotation Yrotation
	JOINT Spine1
	{
		OFFSET -0.0137 5.0038 -0.0537
		CHANNELS 3 Zrotation Xrotation Yrotation
		JOINT Spine2
		{
			OFFSET -0.0000 7.1253 -0.0298
			CHANNELS 3 Zrotation Xrotation Yrotation
			JOINT Chest
			{
				OFFSET -0.0000 7.5501 -0.8160
				CHANNELS 3 Zrotation Xrotation Yrotation
				JOINT Neck1
				{
					OFFSET -0.1817 26.3113 -0.5533
					CHANNELS 3 Zrotation Xrotation Yrotation
					JOINT Neck2
					{
						OFFSET -0.0000 7.7094 2.3026
						CHANNELS 3 Zrotation Xrotation Yrotation
						JOINT Head
						{
							OFFSET -0.0000 6.1289 1.9537
							CHANNELS 3 Zrotation Xrotation Yrotation
							JOINT Jaw
							{
								OFFSET 0.0026 0.4756 3.0949
								CHANNELS 3 Zrotation Xrotation Yrotation
								End Site
								{
									OFFSET 0.0 1.0 0.0
								}
							}
							JOINT LeftEye
							{
								OFFSET 3.2064 5.3802 7.5869
								CHANNELS 3 Zrotation Xrotation Yrotation
								End Site
								{
									OFFSET 0.0 1.0 0.0
								}
							}
							JOINT RightEye
							{
								OFFSET -3.2224 5.3619 7.5582
								CHANNELS 3 Zrotation Xrotation Yrotation
								End Site
								{
									OFFSET 0.0 1.0 0.0
								}
							}
						}
					}
				}
				JOINT LeftShoulder
				{
					OFFSET 1.6217 23.2372 5.1134
					CHANNELS 3 Zrotation Xrotation Yrotation
					JOINT LeftArm
					{
						OFFSET 14.9198 0.0000 -5.5023
						CHANNELS 3 Zrotation Xrotation Yrotation
						JOINT LeftForeArm
						{
							OFFSET 28.7393 0.0000 -0.0026
							CHANNELS 3 Zrotation Xrotation Yrotation
							JOINT LeftHand
							{
								OFFSET 27.0940 -0.0000 0.0026
								CHANNELS 3 Zrotation Xrotation Yrotation
								JOINT LeftHandThumbEnd
								{
									OFFSET 12.2686 -3.2202 4.8331
									CHANNELS 3 Zrotation Xrotation Yrotation
									End Site
									{
										OFFSET 0.0 1.0 0.0
									}
								}
								JOINT LeftHandMiddleEnd
								{
									OFFSET 19.0120 -0.3129 -0.0340
									CHANNELS 3 Zrotation Xrotation Yrotation
									End Site
									{
										OFFSET 0.0 1.0 0.0
									}
								}
							}
						}
					}
				}
				JOINT RightShoulder
				{
					OFFSET -1.3801 23.1803 5.2142
					CHANNELS 3 Zrotation Xrotation Yrotation
					JOINT RightArm
					{
						OFFSET -15.0372 0.0000 -5.5456
						CHANNELS 3 Zrotation Xrotation Yrotation
						JOINT RightForeArm
						{
							OFFSET -28.7366 0.0000 -0.0026
							CHANNELS 3 Zrotation Xrotation Yrotation
							JOINT RightHand
							{
								OFFSET -27.1336 -0.0000 0.0026
								CHANNELS 3 Zrotation Xrotation Yrotation
								JOINT RightHandThumbEnd
								{
									OFFSET -12.2642 -3.2115 4.8040
									CHANNELS 3 Zrotation Xrotation Yrotation
									End Site
									{
										OFFSET 0.0 1.0 0.0
									}
								}
								JOINT RightHandMiddleEnd
								{
									OFFSET -19.0006 -0.3066 -0.0316
									CHANNELS 3 Zrotation Xrotation Yrotation
									End Site
									{
										OFFSET 0.0 1.0 0.0
									}
								}
							}
						}
					}
				}
			}
		}
	}
	JOINT LeftLeg
	{
		OFFSET 10.0432 -8.4345 2.5957
		CHANNELS 3 Zrotation Xrotation Yrotation
		JOINT LeftShin
		{
			OFFSET -0.0000 -43.2218 -0.8029
			CHANNELS 3 Zrotation Xrotation Yrotation
			JOINT LeftFoot
			{
				OFFSET 0.0000 -42.1551 -3.4815
				CHANNELS 3 Zrotation Xrotation Yrotation
				JOINT LeftToeBase
				{
					OFFSET 0.0000 -5.0595 13.2315
					CHANNELS 3 Zrotation Xrotation Yrotation
					End Site
					{
						OFFSET 0.0 1.0 0.0
					}
				}
			}
		}
	}
	JOINT RightLeg
	{
		OFFSET -10.0473 -8.2953 2.6203
		CHANNELS 3 Zrotation Xrotation Yrotation
		JOINT RightShin
		{
			OFFSET 0.0000 -43.3622 -0.8056
			CHANNELS 3 Zrotation Xrotation Yrotation
			JOINT RightFoot
			{
				OFFSET 0.0000 -42.1174 -3.4784
				CHANNELS 3 Zrotation Xrotation Yrotation
				JOINT RightToeBase
				{
					OFFSET -0.0000 -5.0796 13.2842
					CHANNELS 3 Zrotation Xrotation Yrotation
					End Site
					{
						OFFSET 0.0 1.0 0.0
					}
				}
			}
		}
	}
}
MOTION
Frames: 9
Frame Time: 0.033333
1.6505 94.0767 0.7681 3.3024 1.8863 -7.1860 -1.9876 6.7000 -0.2726 -1.1959 -2.4159 -1.1085 -1.8863 23.0803 -4.6448 0.9735 24.1295 2.8188 1.4819 -3.5313 9.8352 -4.4751 -5.8134 10.8615 -0.0282 -0.1085 0.0328 0.5799 -10.4249 -3.7526 -0.6249 -10.3667 3.8217 -3.8905 15.3263 -11.0959 -63.4662 -55.1347 24.2885 -1.2723 -1.7250 -74.6954 145.4397 -69.4454 -82.2146 -16.2348 9.7533 14.1334 -56.7926 1.5147 1.6227 17.4014 17.6367 13.7781 67.0647 47.6869 49.8050 1.9277 -2.5397 101.9972 52.4960 -23.0211 -2.2827 16.3108 7.5392 -16.8746 51.0578 -3.2355 -5.0063 3.3604 -32.0060 24.5487 -0.1130 25.1943 -0.2488 -4.7154 9.6426 11.9651 1.6510 1.0427 -2.0370 -22.3876 -4.3468 -14.5739 0.0189 18.3774 0.8630 23.2306 -15.2561 -3.1175 -1.4161 -0.2695 0.9646
1.6213 94.0984 0.6640 3.0025 2.0405 -7.3502 -2.0931 7.0063 -0.2766 -1.2752 -2.3052 -1.0862 -1.9743 23.0755 -4.6526 1.4507 23.8855 2.7634 1.4974 -3.5253 10.0142 -4.3670 -6.3759 10.9518 -0.0159 -0.1028 0.0339 0.5937 -10.3956 -3.7533 -0.6125 -10.3393 3.8206 -3.6184 15.3992 -11.0778 -62.9666 -55.7282 23.9604 -1.1689 -1.7357 -74.8643 147.0779 -68.9278 -84.3757 -16.3427 9.7099 14.2169 -56.9564 1.4852 1.6187 17.0025 17.5796 13.8315 66.9689 47.1643 50.1694 1.7294 -2.4846 101.9123 52.6996 -22.3612 -1.4384 16.3096 7.5543 -16.8418 51.1159 -3.2111 -4.9894 3.6428 -32.4248 24.7275 -0.1534 25.3077 -0.2943 -4.6901 9.8106 11.7379 1.6544 1.0655 -2.0297 -21.9903 -4.6211 -14.6627 0.0251 18.4435 0.8620 23.2411 -15.2519 -2.7221 -1.4171 -0.2834 0.9643
1.5736 94.0862 0.5282 2.6482 2.1748 -7.5364 -2.2044 7.3219 -0.3045 -1.3659 -2.1476 -1.0354 -2.0783 23.1465 -4.6613 2.0041 23.5432 2.6730 1.5027 -3.5199 10.2122 -4.2801 -7.1071 11.0746 0.0004 -0.0925 0.0289 0.6123 -10.3536 -3.7607 -0.5964 -10.3007 3.8093 -3.3826 15.4440 -11.1226 -62.3828 -56.4510 23.6899 -0.9745 -1.7734 -75.1989 147.4539 -68.6121 -85.4644 -16.4494 9.6685 14.2864 -57.1615 1.4506 1.6292 16.5842 17.4624 13.8867 66.9034 46.6619 50.5026 1.4527 -2.4168 101.9368 53.2386 -21.8633 -1.0049 16.2899 7.5682 -16.8562 51.2451 -3.2372 -5.0145 3.9807 -32.9071 24.9327 -0.1704 25.5280 -0.3147 -4.7468 9.9003 11.3652 1.6603 1.0530 -2.0272 -21.5624 -4.9228 -14.8021 0.0367 18.5821 0.8565 23.2454 -15.2944 -2.2847 -1.4200 -0.3085 0.9569
1.5140 94.0457 0.3759 2.2585 2.2804 -7.7061 -2.3319 7.6850 -0.2855 -1.4366 -1.9933 -1.0461 -2.2129 23.3421 -4.6809 2.6180 23.2174 2.5574 1.4232 -3.5222 10.4546 -4.1929 -7.9777 11.1409 0.0142 -0.0784 0.0251 0.6259 -10.3174 -3.7683 -0.5815 -10.2695 3.8031 -3.1483 15.5148 -11.2151 -61.9331 -57.3422 23.7156 -0.7845 -1.8904 -75.6164 146.4124 -68.4743 -85.2449 -16.5620 9.6346 14.2982 -57.3453 1.4424 1.6165 16.2557 17.3142 13.9774 66.6637 46.2041 50.5148 1.2902 -2.3325 102.0721 53.9501 -21.4846 -0.7654 16.2438 7.5377 -16.8700 51.3207 -3.3017 -5.0310 4.3745 -33.4753 25.1071 -0.1832 25.9366 -0.3176 -4.8521 9.8685 10.9557 1.6670 1.0205 -2.0260 -21.1200 -5.2961 -14.9554 0.0398 18.9356 0.8321 23.2560 -15.4317 -1.7793 -1.4263 -0.3621 0.9539
1.4630 93.9646 0.2237 1.8647 2.3589 -7.8948 -2.4828 8.0522 -0.2692 -1.5158 -1.8008 -1.0531 -2.3647 23.6567 -4.7168 3.2828 22.9552 2.4730 1.3175 -3.5278 10.5983 -4.1314 -8.9132 11.1550 0.0239 -0.0629 0.0242 0.6319 -10.2899 -3.7733 -0.5676 -10.2464 3.8027 -2.9368 15.5635 -11.3411 -61.6950 -58.3524 24.0774 -0.6010 -2.0169 -75.9611 144.3829 -68.2822 -84.0853 -16.5530 9.6467 14.2947 -57.3747 1.4670 1.5935 16.0963 17.1420 14.0868 66.1717 45.7602 50.1707 1.3049 -2.3223 102.1880 54.8091 -21.0855 -0.5933 16.2501 7.5022 -16.8672 51.3964 -3.3949 -5.0801 4.7713 -34.0954 25.2660 -0.1773 26.4865 -0.2924 -4.9386 9.6693 10.5370 1.6708 0.9983 -2.0396 -20.7084 -5.7972 -15.0853 0.0519 19.5563 0.8108 23.2429 -15.6563 -1.2810 -1.4324 -0.4051 0.9638
1.4184 93.8385 0.0402 1.4724 2.3821 -8.1155 -2.6610 8.4310 -0.2300 -1.5976 -1.5881 -1.0775 -2.5280 24.1212 -4.7960 4.0049 22.8165 2.4576 1.1913 -3.5433 10.6256 -4.0792 -9.8579 11.0924 0.0349 -0.0527 0.0196 0.6375 -10.2774 -3.7827 -0.5509 -10.2281 3.7984 -2.7856 15.6194 -11.4961 -61.7397 -59.5631 24.8409 -0.4249 -2.1210 -76.1847 142.0229 -67.9233 -82.3536 -16.5183 9.6997 14.2953 -57.3724 1.5043 1.5949 16.1312 17.0290 14.2610 65.3859 45.2983 49.4909 1.4731 -2.4718 102.2765 55.9336 -20.4840 -0.5051 16.2976 7.4582 -16.8051 51.4606 -3.4847 -5.0874 5.1862 -34.7388 25.4247 -0.1593 27.1809 -0.2451 -5.0223 9.3271 10.1933 1.6716 0.9800 -2.0558 -20.3550 -6.4006 -15.1705 0.0794 20.4733 0.8164 23.2089 -16.0134 -0.7629 -1.4361 -0.4375 0.9870
1.3846 93.6710 -0.1199 1.0971 2.3596 -8.3795 -2.8548 8.7855 -0.1827 -1.6828 -1.3542 -1.1264 -2.7134 24.6998 -4.8891 4.7482 22.7871 2.4794 1.0292 -3.5534 10.5528 -4.0441 -10.7221 10.9847 0.0395 -0.0489 0.0163 0.6371 -10.2706 -3.7850 -0.5417 -10.2173 3.7922 -2.6939 15.6328 -11.6665 -62.0856 -60.8453 25.9821 -0.2720 -2.1932 -76.2804 140.2304 -67.3687 -80.8165 -16.4535 9.7672 14.3074 -57.3636 1.5252 1.6496 16.2354 16.9302 14.4111 64.5457 44.7463 48.8092 1.7773 -2.7798 102.2472 57.2027 -19.5367 -0.4017 16.4045 7.4120 -16.6667 51.4705 -3.5262 -5.0507 5.6050 -35.3816 25.5885 -0.1320 28.0155 -0.1802 -5.1576 8.8598 9.8983 1.6730 1.0077 -2.0762 -20.0490 -7.0787 -15.2419 0.1145 21.5771 0.8517 23.1251 -16.3996 -0.2099 -1.4376 -0.4356 1.0127
1.4013 93.4854 -0.2367 0.7687 2.2924 -8.6991 -3.0392 9.1112 -0.1509 -1.7792 -1.1343 -1.1526 -2.9303 25.2970 -4.9831 5.4734 22.8908 2.4363 0.8355 -3.5445 10.4698 -3.9998 -11.3311 10.8395 0.0394 -0.0561 0.0118 0.6362 -10.2664 -3.7824 -0.5407 -10.2078 3.7819 -2.6512 15.6479 -11.8664 -63.0367 -62.2051 27.7598 -0.2663 -2.1833 -76.2781 139.4625 -66.8217 -79.7350 -16.4810 9.7962 14.2996 -57.3547 1.5364 1.6928 16.3305 16.8890 14.4803 63.9526 44.2227 48.5234 2.0805 -3.1792 102.0597 58.3847 -18.2160 -0.2626 16.5922 7.3755 -16.4714 51.4642 -3.5219 -4.9544 5.9747 -35.9994 25.8109 -0.0999 28.9260 -0.1352 -5.2909 8.3538 9.6739 1.6690 1.0637 -2.0828 -19.8420 -7.7071 -15.2207 0.1576 22.7076 0.8984 23.0505 -16.7711 0.2948 -1.4361 -0.4460 1.0283
1.4379 93.3042 -0.3136 0.4942 2.1832 -9.0265 -3.1984 9.4219 -0.1512 -1.8689 -0.9574 -1.1401 -3.1889 25.8428 -5.0889 6.0175 23.1708 2.3879 0.6867 -3.5302 10.3541 -3.9083 -11.6108 10.6823 0.0322 -0.0719 0.0096 0.6249 -10.2763 -3.7767 -0.5441 -10.2182 3.7759 -2.5560 15.6690 -12.0213 -64.6062 -63.3776 30.0922 -0.4110 -2.1414 -76.2791 139.3464 -66.4604 -78.9581 -16.5532 9.7461 14.2653 -57.3133 1.5237 1.7491 16.2948 17.0012 14.4675 63.5841 43.6317 48.5271 2.4042 -3.5399 101.8001 59.4487 -16.7444 -0.1111 16.8093 7.3378 -16.3184 51.4993 -3.5525 -4.9109 6.3049 -36.5333 26.0702 -0.0872 29.8223 -0.1156 -5.3749 7.9111 9.5672 1.6626 1.1291 -2.0761 -19.6984 -8.1627 -15.1326 0.1861 23.6674 0.9624 22.9808 -17.0432 0.6387 -1.4294 -0.4450 1.0306
